<svg xmlns="http://www.w3.org/2000/svg" viewBox="0 0 462.5 110.3">
<g>
    <path fill="currentColor" d="M108.6,103h-25.7l-7.8-18.9h-42.8l-7.1,18.9H0L38.5,7.4h27.6l42.5,95.6ZM52.7,30.2l-14,37.1h29.4l-15.4-37.1Z"/>
    <path fill="currentColor" d="M201.8,7.4h20.7v95.6h-23.8v-59.7l-25.8,30h-3.6l-25.8-30v59.7h-23.8V7.4h20.7l30.7,35.5,30.7-35.5Z"/>
    <path fill="currentColor" d="M282.9,7.4c34.9,0,52.8,21.7,52.8,47.9s-17.4,47.7-55.5,47.7h-39.5V7.4h42.2ZM264.6,85.5h15.6c24,0,31.1-16.3,31.1-30.3s-8.8-30.3-31.4-30.3h-15.3v60.6Z"/>
  </g>
  <g>
    <polygon fill="#ff3c00" points="432.5 30.1 383.2 30.1 353.1 0 462.5 0 462.5 109.4 432.5 79.3 432.5 30.1"/>
    <polygon fill="#ff3c00" points="383.2 79.4 383.2 36.1 352.2 67 352.2 110.3 395.5 110.3 426.5 79.4 383.2 79.4"/>
  </g>
</svg>