<svg xmlns="http://www.w3.org/2000/svg" viewBox="0 0 523.6 110.3">
<path fill="#00529f" d="M99.1,109.8v-44.7s0-22,0-22v-7.3s28.6,2.1,28.6,2.1v43.5s103.1,0,103.1,0c2.1,0,3.9-1.5,4.7-3.3s.8-4.2-.4-6.1-2.4-2.2-4-2.4l-74.8-6.3c-3.8-.8-7.4-2.1-10.9-3.9-6.1-3.2-10.7-8.4-13.2-14.8-.9-2.2-1.5-4.4-1.8-6.6l50.6,4.1,49.7,4.1,7.1.7c4.4.7,8.5,2.6,12,5.3h.2c0,.1,3.2,3,3.2,3,4.4,4.7,7.8,10.2,9.6,16.4v.4c0,0,0,0,0,0v-.3c0,0,0-40.3,0-40.3l29,2.1v39.2c.1,2,.7,3.8,1.9,5.4,1.5,1.9,3.7,3,6.1,3.5h50.2c3.5,0,6.4-1.9,7.8-4.9s1.2-3.8,1.2-5.9v-32.3s0-.4,0-.4c0,0,.2,0,.4,0l28.4,1.7.2,40.8c0,3.6-.5,6.9-1.6,10.2-2.3,6.9-7.2,12-13.6,15.4-4.1,2.1-8.6,3.5-13.2,4.1h-66.6s-3.4-.3-3.4-.3c-4.4-.6-8.6-2.2-12.4-4.6-5.3-3.3-9.3-8-11.8-13.7-1.2-2.8-2.1-5.6-2.5-8.6v-3.2c0-.2,0-.4-.2-.6-.3,5.4-1.8,10.6-4.5,15.3-4.9,8.4-12.8,13.6-22.4,15.3h-119.9s-12.9,0-12.9,0h-.3s-3,0-3,0h-.4c0,0-.3-.2-.3-.4Z"/>
  <path fill="#00529f" d="M388.6,110.3h-.4c0,0,.3-29.3.3-29.3h102c1.6,0,3.2-.7,4.6-1.4,1.5-1.5,2-3.5,1.7-5.6-.3-2-1.5-3.5-3.4-4.1s-2-.4-3.1-.5l-74.4-6.2c-3.4-.6-6.7-1.8-9.8-3.3s-5.2-3.2-7.5-5.4-4.3-4.4-5.7-7.2-2.1-4.7-2.8-7.2v-.3c0,0,.1,0,.2,0l21.6,1.3,65.4,4,18,1.2c6.1.4,11.7,2.8,16.3,6.7,4.8,4.1,8.5,9.4,10.7,15.3.4,1.1.8,2.2.9,3.5.4,4.2.5,8.3-.3,12.4-1,5-3.1,9.6-6.1,13.7-3.9,5.3-9.3,9.1-15.6,10.9-2.6.7-5.4,1.4-8.2,1.4h-104.5Z"/>
  <path fill="#00529f" d="M76.8.2h52.1s0,26.5,0,26.5c1.6-5.3,3.6-11.1,7.4-15.1l4.2-4.1c5.5-4.9,11.9-7.1,19.2-7.5h97.8s0,29.3,0,29.3H51.6s11-17.7,11-17.7c1.4-2.2,2.7-4.2,4.2-6.3,2.4-3.2,5.9-5.1,10.1-5.1Z"/>
  <path fill="#00529f" d="M388.4,26.9c1.2-4.5,3.6-10.8,6.5-14.2l4.7-4.8c3.6-3.3,7.8-5.6,12.6-6.8L419,0h104.8s0,29.3,0,29.3h-135.2c-.3,0-.3-.2-.3-.5v-1.9Z"/>
  <polygon fill="#00529f" points="34.4 110.1 0 110.1 50.4 31 82.9 34.6 34.4 110.1"/>
  <rect fill="#00529f" x="262.7" y="0" width="29.3" height="29.2"/>
  <rect fill="#00529f" x="358.8" y="0" width="29.2" height="29.2"/>
</svg>