<svg xmlns="http://www.w3.org/2000/svg" viewBox="0 0 469.3 110.6">
  <path fill="currentColor" d="M50,92.6c-17,4.9-33.1,11.1-49.5,18,10.9-11.8,16.2-27.5,14.7-43.5-.6-6.4-2.3-12.5-5.1-18.5l24.5,13c1.2,9.9.4,19.6-1.8,29.4,5.2-10.8,7.1-22.7,6.1-34.6-.6-7.4-2.4-14.5-5.4-21.4l26.2,17.5.4,4.4c.8,9.8-.3,19.5-2.8,29.2,11-20.4,10.6-45.1-.9-65.4,9,6.4,17.7,13,26.3,19.8,5,4,9.9,8.1,14.6,12.4,5.1,4.6,15.3,14.2,17.1,20.3,2.2,7.4-.6,15.8-4.8,22-.2.1-.2.1-.2,0-2-5.8-9.1-8-14.7-8.7-13.6-1.8-31.3,2.3-44.6,6.1Z"/>
  <path fill="currentColor" d="M469.3,76.8h-9s-10.6-15-10.6-15h-9.5s0,15,0,15h-7.6s.1-42.9.1-42.9h19.2c4.6,0,9,1.2,12.4,4.2,2.5,2.5,3.5,5.8,3.6,9.3.1,6.3-4.1,11.8-10.3,13.1l11.6,16.3ZM460.3,47.5c-.1-2.7-1.6-5-4.1-5.9-1.4-.6-2.8-.8-4.4-.8h-11.4s0,14.4,0,14.4h11.5c4.7-.1,8.6-2.7,8.4-7.6Z"/>
  <path fill="currentColor" d="M285.6,76.8h-9s-10.6-15-10.6-15h-9.4s0,15,0,15h-7.5s0-42.9,0-42.9h19.2c4.6,0,8.9,1.2,12.3,4.2,2.5,2.5,3.6,5.8,3.6,9.2.2,6.4-4,11.9-10.2,13.2l11.6,16.3ZM276.5,47.5c-.1-2.8-1.6-5-4.2-6-1.4-.5-2.8-.8-4.3-.8h-11.3s0,14.4,0,14.4h11.3c4.6,0,8.7-2.6,8.5-7.7Z"/>
  <path fill="currentColor" d="M231.7,55.3c-.3,12.2-10.4,21.9-22.4,21.9-12.1,0-22.2-9.6-22.5-21.8.3-12.2,10.3-21.8,22.4-21.8,12.1,0,22.2,9.5,22.5,21.8ZM208.1,70.5c8.8.7,16-6.4,15.6-15.1.3-8.3-6.3-15.2-14.6-15.3-8.3,0-14.9,6.9-14.5,15.2-.3,7.8,5.6,14.6,13.5,15.3Z"/>
  <path fill="currentColor" d="M377.2,66.4h-20.3s-4.4,10.4-4.4,10.4h-7.7s18.9-43.2,18.9-43.2h7s18.9,43.2,18.9,43.2h-7.9s-4.4-10.3-4.4-10.3ZM374.4,59.7l-7.4-17.2-7.4,17.2h14.8Z"/>
  <path fill="currentColor" d="M319.6,77.2c-7.6.9-15.2-1.6-20.8-6.7l4.6-5.4c3.9,3.7,8.8,5.7,14.1,5.6,3.8-.1,7.4-1.9,7.1-5.9-.1-1.3-.7-2.4-1.8-3.2s-1.9-1.2-3-1.5l-5-1.4c-3.6-1-6.9-1.6-10.2-4-1.8-1.3-3-3.1-3.5-5.2s-.6-3.9-.2-5.9c1.1-6.6,7.5-10.1,13.9-10.2,5.8-.3,11.5,1.6,16.1,5.2l-4.1,5.7c-3.4-2.7-7.5-4.3-11.9-4.4-3.7,0-7.2,2-6.8,5.8.1,1.3.7,2.5,1.9,3.2s2,1.2,3.1,1.5l5.2,1.5c2.1.6,4.1,1.1,6.1,1.9,3.8,1.6,6.8,4.1,7.5,8.2s-.8,10.1-5.4,12.9-4.3,2-6.8,2.3Z"/>
  <path fill="currentColor" d="M145,46.1c-3.6,5.3-3.6,12.9,0,18.2s6.7,6.1,11.3,6.2c4.8,0,9.4-2,12.6-5.5l4.8,4.9c-4.3,5-10.8,7.8-17.4,7.6-12.5.1-22-9.9-22-22.1,0-12.4,9.6-22.5,22.2-22.4,6.2-.2,12.4,2.1,16.8,6.7l-4.8,5.6c-3.1-3.3-7.3-5.2-11.8-5.3-4.7,0-9,2.2-11.7,6.1Z"/>
  <path fill="currentColor" d="M97,46.6c-1-4.3-4-7.6-7.3-10.3-5.5-4.5-12.6-7.8-19.2-10.1.3-1.6.2-3.2,0-4.8-.4-2.7-1.1-5.3-2-7.9-1.5-4.6-3.4-9-5.4-13.5,5.1,3.1,9.7,6.4,14.3,10,3.8,3,7.3,6.1,10.6,9.5,5.6,6,11.5,14.2,10.5,22.7-.2,1.5-.6,3-1.5,4.4Z"/>
  <rect fill="currentColor" x="405.6" y="33.8" width="7.5" height="42.9"/>
  <path fill="currentColor" d="M45.1,38.2c.2-1.7.1-3.2-.1-4.8-.4-2.4-1.1-4.6-2-6.8-1.2-3.2-2.8-6-4.5-9.1l15.4,10.3c2.1,5.1,3.7,10.1,4.7,15.5l-13.5-5.1Z"/>
  <path fill="currentColor" d="M21.5,50.8c.2-1.4.1-2.8,0-4.3-.3-1.9-.9-3.7-1.6-5.6-1.3-3-2.9-5.7-4.8-8.4l14.6,7.9c1.7,4.4,3.1,8.8,4.1,13.3l-12.3-3Z"/>
</svg>