<svg xmlns="http://www.w3.org/2000/svg" viewBox="0 0 634.1 110.4">
<path fill="#f70000" d="M2.2,21.2l1.2-2.3C14-1.1,58.7-2.4,84.1,4.4c8.7,2.3,16.9,7,21.3,14.8,4.9,8.6,5,20.9-.1,29.4-11,18.2-30.7,28.7-46,57.3-1.2,2.3-3.1,3.9-5.3,3.7s-3.4-1.6-4.5-3.5C34.3,77.5,13.8,68.9,3.6,48.9c-7-13.6-1.7-26.9-1.4-27.7ZM63.3,79.7c-2.7,3.4-6.5,5.4-8.4,9.6,4.8-1.3,6.7-4.9,9.4-7.7,9.8-9.9,19.3-20.2,26.7-32.2,3.8-6.1,4.8-13.5,2-20.6-8.2-20.8-68.4-21.1-77.6-.7-8,17.6,13.1,38.8,31.4,48.3,10.2,5.3,23-14.6,28.6-27.8,2.5-6,0-12.2-6-14.8-9.6-4.2-20.9-4.7-30.7-.9-5.2,2-8.4,7.4-7.1,13s7.2,16.7,15.6,18.8c8.2,2,15.7-8.1,13.1-15.3s-6.4-3.7-9.2-3.1c-2.2.5-2.7,1.6-2.7,3.1,0,3.7,6.5,2.1,7,5.1s-1.2,4.1-3.5,4.5c-5,1.1-8.6-1.6-10.6-5.3s-3.6-8.7.1-12.1c6.5-5.8,17.6-5.6,25-1.2,9.9,5.9-8.9,38.3-21.1,31.1-15.3-9.1-28.3-24.2-21-39.5,2.1-4.5,7.5-8.4,13.8-9.7,16.3-3.3,41.5-2.1,47.3,10.2,7,14.7-10.6,32.8-22.1,47Z"/>
  <g>
    <path fill="currentColor" d="M634.1,71h0c0,5.1-2.2,9.9-6.1,13.3s-6.2,4.6-12.5,4.9h-51.9c0,0,9.6-12.8,9.6-12.8h39.8c3.5,0,5.8-2.9,5.9-5.8,0-2.7-2.5-5.5-5.9-5.6l-32.1-.3c-10.4-.1-16.5-9.6-16.3-18.8.3-9.8,8.2-16.5,18.7-16.6l48.7-.3-9.8,13.1h-36.6c-3.7,0-6.1,3.1-5.8,6.1s2.5,5,5.8,5h31c5.9.1,9.3,2.6,11.9,5,3.6,3.3,5.6,7.9,5.6,12.8Z"/>
    <path fill="currentColor" d="M355,89.2h-13.4c0,0-34.5-34.9-34.5-34.9l-.4,35.1h-13.9s0-60,0-60c4.4-.4,9-.7,13.6.4l34.2,34.6.2-35.2h14.3c0,0,0,60,0,60Z"/>
    <path fill="currentColor" d="M499.1,88.7l-53.7.5,9.6-12.9h39.8c3.5,0,5.7-2.9,5.7-5.6s-2.2-5.7-5.8-5.7l-32.1-.3c-10.4-.1-16.7-9.5-16.4-18.9.3-9.7,8.3-16.5,18.8-16.6l48.6-.2-9.7,12.9h-36.5c-3.3,0-5.7,2.5-5.9,5.2s2.1,6,5.9,6h30.8c10.1.1,17,7.4,17.6,16.4.6,9.4-5.4,19-16.6,19.1Z"/>
    <path fill="currentColor" d="M184.8,63.9h-26.5c0-.1,8.6-11,8.6-11h33.5c0,0,0,36.1,0,36.1h-38.9c-17.2-1.2-28.8-14.4-28.6-30.8.2-15.7,12.9-29,29.9-29.1h38.7c0,0-9.7,12.8-9.7,12.8h-26.6c-9.1,0-15.8,7.7-16.5,16.3-.6,8,5.2,17.7,14.2,17.8l22,.4v-12.6Z"/>
    <path fill="currentColor" d="M266.9,64.5h-32.6c-.9,3.8-.5,7.4-.4,11.9h44s-9.2,12.8-9.2,12.8h-50.7c0,0,0-60.1,0-60.1h59.8s-9.1,12.9-9.1,12.9h-34.8c0,.1,0,11.1,0,11.1l41.3.2-8.3,11.2Z"/>
    <path fill="currentColor" d="M421.9,64.4l-32.8.3c-.8,4.3-.7,7.7,0,11.8h43.9c0,0-9.9,12.9-9.9,12.9h-50.2s0-60.2,0-60.2h59.9s-9.7,12.9-9.7,12.9h-34c-.8,4.2-.8,7.2,0,11.2h40.7c0,.1-7.9,11.2-7.9,11.2Z"/>
    <rect fill="currentColor" x="531.6" y="29" width="15.8" height="60.3"/>
  </g>
</svg>