<svg xmlns="http://www.w3.org/2000/svg" viewBox="0 0 804.8 109.6">
<g>
    <path fill="#015daa" d="M486.3,53.9c11.1,2.5,19.5,7.3,21.8,18.6,2.7,19.7-7.2,31.9-26.4,35.7-5.1.9-10,1.4-15.4,1.4h-46.4s0-108.9,0-108.9h52.3c7.2.1,13.8,1.7,20.1,4.8,11.5,6.2,15.1,17.4,12.6,30-2.3,10.1-9.2,15.1-18.7,18.5ZM476.6,31c-.3-3.5-2.1-6.2-5.2-7.7-2.5-1.2-5.2-1.8-8-1.9l-14.3-.2v22.4s10.2,0,10.2,0c8.8-.2,18.2-3.2,17.3-12.7ZM479.5,75.7c-.2-4.7-2.6-8.4-6.8-10.1-3.2-1.4-6.7-2-10.3-2h-13.2c0-.1,0,25.5,0,25.5h12.1c9.3-.2,18.8-3.1,18.3-13.4Z"/>
    <path fill="#015daa" d="M365.7,86.4h-41s-8.6,23.2-8.6,23.2h-29.5c0-.1,41.5-108.9,41.5-108.9h35.7s42.1,108.9,42.1,108.9h-31.9s-8.1-23.2-8.1-23.2ZM358.8,65.8l-13.2-42.9-14.2,42.9h27.4Z"/>
  </g>
  <polygon fill="#015daa" points="780.9 64.2 755.1 64.4 755.1 89.1 777.5 88.8 804.7 88.6 804.8 109.2 774.2 109.5 726 109.6 726 .7 789.7 .5 803 .3 803 20.9 787.1 21.2 755.1 21.3 755.1 43.8 783.5 43.6 800.4 43.3 800.4 64 780.9 64.2"/>
  <polygon fill="#015daa" points="617.2 .7 577.1 68.5 577.1 109.6 548 109.6 548 68.5 507.6 .7 541.1 .7 562.5 44.4 583.7 .7 617.2 .7"/>
  <polygon fill="#015daa" points="685.3 109.6 656.1 109.6 656.1 22.2 629.2 22.2 629.2 .7 712.2 .7 712.2 22.2 685.2 22.2 685.3 109.6"/>
  <g>
    <path fill="#015daa" d="M241.5,84.8c2.2,0,3.5-1.5,3.5-3.4v-34.1s6.9-.2,6.9-.2l22.9-.2v62.7c0,0-31.8.2-31.8.2h-14.7c-18.6.3-35.5-8.9-45.9-24.1-10.7-15.7-12.4-35.6-4.4-52.8,8.9-19.2,28.2-31.6,49.5-31.4h31c0,0,15.3-.2,15.3-.2v23.3s-18.6.2-18.6.2l-21.3.2c-15,1.1-26.8,9.6-29.5,24.5-1.7,9.4.9,18.4,7.4,25.4,5,5.4,11.6,9.2,19,9.9h10.6Z"/>
    <g>
      <path fill="#015daa" d="M68.6,84.8c2.1,0,3.5-1.6,3.4-3.5v-34.1s29.9,0,29.9,0v62.7c0,0-48-.1-48-.1-13.3,0-25.6-5.2-35.5-13.9C8.7,87.1,2.2,75.4.5,62.5-3.7,30.9,20.5,2.5,52.5,1.4l48.4.2v23.3s-39.9,0-39.9,0c-14.9,1.1-26.7,9.4-29.5,24.2s.9,19.3,7.9,26.4c5,5.1,11.3,8.7,18.5,9.3h10.6Z"/>
      <rect fill="#015daa" x="127" y="1" width="29.1" height="108.3"/>
    </g>
  </g>
</svg>