<svg xmlns="http://www.w3.org/2000/svg" viewBox="0 0 530 110.2">
<g>
    <path fill="currentColor" d="M480.1,100.3v-2.3s8.4,0,8.4,0v10c-.2.4-1.5.4-1.8,0s-.4-1.1-.7-2.2c-1.6,2.1-3.6,2.7-6,2.8-4.3.3-7.9-2.1-8.9-6.4-.5-2.1-.5-4.4,0-6.6,1.1-5.3,5.9-8.1,11.1-7.1,3.4.7,6.2,3.1,6,6.4-1,0-1.9,0-2.4-.1s-.9-4.7-6.8-3.9c-4.7.6-6.4,6.7-4.6,11.7,1.1,2.9,4,4.1,6.7,3.7,3-.4,4.9-2.9,4.9-6.2h-5.9Z"/>
    <path fill="currentColor" d="M335,107.4c0,.9-2.7.8-3.2,0l-9-14-.3,14.4c-.8,0-1.8.1-2.8,0v-19.3s3.2,0,3.2,0l9.5,14.8.2-14.9h2.5s-.1,18.9-.1,18.9Z"/>
    <path fill="currentColor" d="M366.2,108.7c-5.5,0-9-4.1-9.1-9.2,0-3.6.8-7.4,4-9.6,3.1-2.1,7.6-2,10.8,0,3.2,2,4.1,5.6,4,9.1-.2,5.4-3.8,9.7-9.6,9.7ZM370.4,105.5c3.7-2.9,3.9-8.9,1.2-12.4-2.5-3.2-7.9-2.8-10,.5-1.9,3.1-2,7.3,0,10.3,1.7,2.4,6.1,3.6,8.8,1.5Z"/>
    <path fill="currentColor" d="M437.4,108.4c-4.9-1.1-6.8-5.3-6.8-9.9,0-5.2,3.1-9.9,8.6-10.1,2.9-.1,5.6.5,7.5,2.4,3.8,3.7,3.7,11.7-.4,15.5s-5.5,2.8-8.8,2.1ZM443.3,105.8c2.9-1.7,3.5-4.9,3.5-7.7,0-3.4-1.8-6.2-4.8-7s-6.2.3-7.5,3.2c-1.3,3.1-1.4,6.8.6,9.6,1.7,2.3,5.6,3.3,8.1,1.8Z"/>
    <path fill="currentColor" d="M214.1,99.1h-10.5c0,0,.2,6.3.2,6.3h11.5c0,0,0,2.3,0,2.3l-14.2.2v-19.3s14,0,14,0c.1.8.1,1.7,0,2.5h-11.4s0,5.6,0,5.6h10.5c0,0,0,2.3,0,2.3Z"/>
    <path fill="currentColor" d="M287.5,107.9c-.9.2-1.7.2-2.7,0v-8.9s-9.9,0-9.9,0v9c-.9.1-1.7.2-2.8,0v-19.3s2.6,0,2.6,0v8c0,0,9.9,0,9.9,0v-8c0,0,2.8,0,2.8,0v19.3Z"/>
    <path fill="currentColor" d="M248.7,103.4c.3-.7.3-1.5.6-1.8.4-.4,1.5-.5,2.5-.3,0,4.4-3.7,7.5-8.2,7.6-4.3,0-7.5-2.6-8.3-6.8-.6-3.2-.5-6.5,1-9.3,1.8-3.2,4.5-4.7,8.2-4.5s7.1,2.7,7.3,6.6c-.9.3-1.6.2-2.1,0s-1.3-4.5-6.4-4c-1.9.2-4,1.4-4.8,3.5-1.9,4.9-.7,11.1,4,11.9,2.6.5,5-.3,6.2-3Z"/>
    <path fill="currentColor" d="M526.9,89l-6.9,11.5-.3,7.6h-2.5s-.3-7.5-.3-7.5l-7-11.6c.8-.3,1.9-.2,3-.2l5.4,8.9,5.5-8.9c.9-.1,1.7-.2,3.1,0Z"/>
    <polygon fill="currentColor" points="410.7 105.4 410.7 107.7 398.1 108 398.1 88.6 400.8 88.5 400.9 105.4 410.7 105.4"/>
    <path fill="currentColor" d="M175.1,107.7c-.9.4-1.8.3-2.7.1v-16.7s-6.4,0-6.4,0v-2.2s15.5,0,15.5,0v2.2s-6.3.1-6.3.1v16.5Z"/>
    <path fill="currentColor" d="M147.5,83.2l3.9,15c1.3,5.2,5,7.5,10.6,9.4l-30.1.4c-1.5-8.6-2.6-16.9-4.7-25.3-1.2-5-2.8-9.8-5.7-14-2.5-3.3-6.1-5.1-10.4-4.3v28.9s.6,6.9.6,6.9c.3,3,2.5,5.1,5.4,6.1,2,.7,4.3-.2,6.2,1.5l-41.7-.2c5.2-1.3,9.1-2.8,10.2-7.9.6-2.6,1-5.3,1-8.3v-49.1c0-8.7-1.6-18.5-10-18.8,0-.5,0-.8.1-1.2h38.7c.1,1.3-1,1.4-1.8,1.4-3.9,0-6.9,2.1-7.9,5.8-.7,2.4-.9,5-.9,7.6v23.9c0,.6,1.4.8,1.9.3l14.9-15.6c5-5.2,10.2-14.5,5.8-19.5s-3.4-2.5-5.8-2.5v-1.6s33,0,33,0c.1.6,0,1.1,0,1.5-3.2.5-6,1.9-8.7,3.7-4.7,3.2-9.5,6.2-13.6,10.3l-24.4,24.2c16,1.1,29.1,4.9,33.3,21.2Z"/>
    <path fill="currentColor" d="M290.2,110.6c-.2-.8.1-1.7.8-2.2,10.8-7.8,10.1-20.6,8.1-33.3-2.4,3.5-4.1,6.8-7.7,8.4-8.3,3.8-17.4.1-21.8-7.7s-4.4-11.8-4.8-18.5c-.5-8.5,1-16.8,5.4-24,3.2-5.1,7.4-9.3,13.1-11.2,6.8-2.2,13.4.3,17,6.5l.3-5.7h27.5c.2.9-.2,1.3-.8,1.3-5.6,0-8.2,4.5-8.2,10.2l-.3,50.2c0,8.5-5.3,15.3-12.3,19.5-5.2,3.1-10.5,4.9-16.2,6.5ZM299.2,69.8c1.8-6.9,1.9-13.8,1.6-20.9-.4-7.9-.2-20.4-6.1-24.3-1.6-1.1-3.6-1.5-5.6-.8-3.6,1.2-5,8.8-5.4,13.8-.8,10.4-.9,20.7,0,31.1.5,5.5,2,12.6,6.6,13,4.6.4,7.5-6.6,9-11.9Z"/>
    <path fill="currentColor" d="M486.2,34.8v37.5c0,5.7,1.2,11.1,6.3,11,.1.3.1.7,0,1h-32c-.2-.2-.2-.7,0-1,6,.2,7.4-5.9,7.4-12.4v-35.1c0-2.3-.2-4.5-.8-6.7-1.5-5.4-6.8-4.8-7.4-5.1s-.5-.8-.2-1.6h27s.3,6.6.3,6.6c2.5-3.2,5.1-6.2,9.1-7.1,4.4-1,9.2-.9,13.5.1,8.4,2.1,11.5,10.4,11.6,18.8v30.4c.1,0,.9,7.1.9,7.1.3,3.1,3,4.9,6.2,4.8.3,0,.8.3.5,1h-32.3c-.3,0-.7-.3-.5-.9,5.5,0,5.8-5.6,5.8-12v-37.4c-.1-2.7-.6-6.1-2.7-7.8-3.3-2.7-8.7-.4-10.2,3.4l-2.2,5.2Z"/>
    <path fill="currentColor" d="M225.7,34.7v36.6c-.1,2.9.2,5.8,1,8.3.6,2.8,2.8,3,5.6,4.5h-33c3.5-1.6,6.1-2,7-5.5s1-5.1,1-7.9v-35.6c0-2.1-.3-4.1-.9-6.1-1.7-5.5-7.4-4.7-7.6-4.9s-.2-.7,0-1.6h26.9s.1,6.8.1,6.8c2.3-2.6,4.5-5.7,8-6.9,4.5-1.5,9.6-1.3,14.2-.4,9.2,1.8,12.2,10.8,12.2,19.9v28.5c0,6.4.8,13.1,6.8,12.8s1,.1.8,1.1l-33.2-.2c2.6-1.4,4.7-1.5,5.2-4.3.7-2.5.9-5.2.9-8v-38.2c-.1-2.5-.7-5.8-2.6-7.5-3.2-2.7-8.6-.7-10.1,3-.7,1.7-2.2,3.5-2.3,5.5Z"/>
    <path fill="currentColor" d="M453,76.2c-9.1,9.1-20.9,11.8-32.2,5.6-15.6-8.5-21-28-12.2-43.4,3.5-6.1,8-11.1,14.2-14.3s14.5-3.8,21.4-.3c9.7,4.9,16.7,14.2,18.3,25,1.5,10.2-2.4,20.1-9.5,27.3ZM434.3,83.8c4,0,6.9-2.4,8.1-6,1.1-3.3,1.6-6.7,1.6-10.3v-27.1c-.1-4.2-.7-8.3-2.1-12.1-1.3-3.8-4.4-6-8.4-5.8-3.7.1-6.4,2.1-7.7,5.6-1.2,3.4-1.9,7.1-1.8,10.9v26.6c0,4.4.6,8.6,2.1,12.5,1.3,3.5,4.1,5.7,8.2,5.6Z"/>
    <path fill="currentColor" d="M369.5,73.1c-6.2,11-19.8,14.1-31.7,10.5-8.8-2.7-15.1-10-15.9-19.2h9c-.5,9.7,2.5,17.6,12.4,19,5.5.8,11.2-1.3,13.5-6.7,1.8-4.2-.5-8.8-4.3-11l-9-4.1c-3.6-1.6-7.2-2.9-10.5-4.9-5.3-3.3-8-8.5-8.2-14.7-.3-9.8,6.1-18.2,15.9-20,11.9-2.2,26.6,2.3,26.9,15.7h-7.5c.3-4.4-.8-8.9-4.1-11.9s-10.9-4.4-15.7-1.5-3.3,4.6-3.4,7.2c-.1,6.6,6.8,9.2,12.7,11.6l12,4.9c9.6,3.9,13.6,15.4,8,25.3Z"/>
    <path fill="currentColor" d="M399.1,76.9c3.4,3.9,7.7,2,12.3,0-4.9,6-12.4,7.6-19.6,7.3-7.9-.4-14.5-5.9-14.6-14.2V27.1c-.1,0-10.6-.3-10.6-.3,9.9-4.7,20.3-13,26.8-21.6.5-.7,1.1-1.6,2.1-1.1v18.4s12.6,0,12.6,0l-2.1,4.2h-10.5c0,0,.2,39.5.2,39.5,0,3.8.9,7.8,3.5,10.7Z"/>
    <path fill="currentColor" d="M163.5,83.9c3.3-1.5,5.6-2.1,6.7-5.3,1-2.9,1.3-5.9,1.3-9.1v-33.2c0-2.2-.2-4.3-.7-6.4-.9-3.7-3.9-6-8-5.7-.2-.5-.2-1.1,0-1.7h26.7s0,46.5,0,46.5c0,7.8.8,13.5,7.7,14h1c.3,0,.1,1.1-.1,1.1l-34.6-.2Z"/>
    <ellipse fill="currentColor" cx="180.1" cy="9.3" rx="9.6" ry="9.6"/>
  </g>
  <g>
    <path fill="currentColor" d="M-.6,108.8l10.8-58.4c.5-2.9-5-3.9-6.7-8.1C.9,36.3.2,29.7.2,23.2c0-2.2,1.3-3.6,3.4-4.4l-1.1-6.8c-.3-1.6.5-2.8,2-3.4C20.3,2.3,39.6.6,56.6,2c6.5.5,12.4,1.7,18.5,4,1.1,4.6,2.6,9.6,1.5,14.4-.6,2.3-1.6,4.1-1.3,6.7.8,7.2.3,14.3-.8,21.5-1.2,7.1-2.3,14-5.1,20.5-2.1,4.9-6.5,7-12.1,6.3l15.2,33.3H-.6ZM16.9,26.2l.4,2.2,5.6,24c6.7-.8,13.2-1.2,19.7-2.5l11.8-4.2c4-.6,7.7.1,12,0l-11.4-8.5c.4-1.5.6-2.9,1.3-4.3s2.4-1.1,3.1.2c-1.8.1-2.6.5-2.9,1.8s0,2.8,1.8,2.8l13.7-.4-2.2-21.1c1-1,2.2-1.3,3.3-2,.8-2.2,1.3-4.4.9-6.7-9.2-3.7-21.5-4.1-31.7-4.1-12.2,0-24,1.8-35.4,6-.8.3-2.3.8-2.4,1.8-.1,2.1.4,4.2,1,6.4,3.8-.8,7.5-2.1,11.5-1.4,2.3.4,3.7,3,3.7,5.3-1.4-1.1-2.4-3-4.3-3.2-4-.4-8,.5-11.6,2.1-1.3.6-2.1,1.8-2.1,3.2,0,5.8,1,15.9,4.5,19.3,3.6,3.6,7.8,6.6,12.8,8.6L4.9,25.5c-.9-1.5,2.4-2.5,3.6-2.7,3.1-.5,7,.2,8.4,3.3ZM75.9,18.7c.6-.1.5-1.5.1-1.9-.5-.5-1.3-1-2-.6s-1.2.9-1.4,2.1c1,.2,2.2.5,3.4.3ZM69.1,54.3c-.1-2.2-1.1-2.7-2.1-3.4-6.5-1.5-13-1.8-19.8-.8,4.7,4.2,14.6,4.4,21.9,4.3ZM30.9,106.5l-11.3-51.6-6.9-4.6L2.1,106.6h28.9ZM68,60.1c.9-1,1.1-2,.9-3.1-9-.8-18.2,1.5-21.5,10.5,7.8,1.6,15.4-1.5,20.6-7.4ZM47.1,106.6l-1.7-19.6c-4.9-4.4-10.2-7.9-16.1-11.5l7.4,31.2,10.3-.2ZM63.6,106.5c-2.6-5.6-6.5-9.3-10.5-13.3l-3.1,13.5,13.7-.2Z"/>
    <path fill="#de1d37" d="M17.3,28.4c.9-1.4,1.6-3.1,3.4-3.6l10.1-2.6c-4.1-.4-8.4-.1-12.6,1.1-1.2.3-1.5,2.1-1.3,2.9-1.4-3.1-5.3-3.8-8.4-3.3-1.2.2-4.5,1.2-3.6,2.7l14.9,26.1c-4.9-2-9.1-5.1-12.8-8.6-3.5-3.4-4.6-13.5-4.5-19.3,0-1.5.8-2.6,2.1-3.2,3.6-1.6,7.6-2.5,11.6-2.1s2.9,2,4.3,3.2c0-2.3-1.4-4.9-3.7-5.3-4-.7-7.6.6-11.5,1.4-.5-2.2-1.1-4.3-1-6.4s1.5-1.5,2.4-1.8C18.2,5.2,30,3.4,42.2,3.4c10.3,0,22.6.4,31.7,4.1.4,2.4,0,4.6-.9,6.7-1.2.6-2.4.9-3.3,2l2.2,21.1-13.7.4c-1.8,0-2.1-1.5-1.8-2.8s1-1.7,2.9-1.8c-.7-1.3-2.5-1.2-3.1-.2s-1,2.8-1.3,4.3l11.4,8.5c-4.3,0-8-.7-12,0l-11.8,4.2c-6.5,1.4-12.9,1.7-19.7,2.5l-5.6-24ZM38.8,12.3c-4.4,2.5-8.1,5.6-11.7,8.9.8.3,2.1.4,2.7,0,4.7-3.8,9.5-7.3,15.2-9.8,5.5.3,10.4,1.9,15.7,3.2h1c.3.2.5-1,0-1.1-5.6-2.1-11.4-3.6-17.6-3.7-1.2,0-2.5,1-3.6,1.5-1.4-2.5-2.8-4.8-4.4-7.2-.6-.3-1.2.2-.8.8l3.5,7.3ZM57.5,21.8c-.8-2.3-1.6-3.8-3.1-5.1-6.1-1-12.1,2-18,4.9,2.7,1.2,5.6,1.3,8.5,1.9,4.3.8,8.5.4,12.6-1.7ZM65.8,18.5c-.1-.5-.4-1-1.3-.8l1.9,15.4c0,.8.2,1,.6,1.3,2.3,1.9,0-10.1-1.2-15.9Z"/>
    <polygon fill="#de1d37" points="30.9 106.5 2.1 106.6 12.7 50.4 19.6 55 30.9 106.5"/>
    <path fill="#de1d37" d="M47.1,106.6l-10.3.2-7.4-31.2c5.8,3.6,11.1,7.1,16.1,11.5l1.7,19.6Z"/>
    <path fill="#de1d37" d="M68,60.1c-5.2,5.9-12.8,8.9-20.6,7.4,3.2-9,12.5-11.3,21.5-10.5.2,1.2,0,2.1-.9,3.1Z"/>
    <path fill="#de1d37" d="M63.6,106.5l-13.7.2,3.1-13.5c4,4,7.9,7.7,10.5,13.3Z"/>
    <path fill="#de1d37" d="M69.1,54.3c-7.3.1-17.2,0-21.9-4.3,6.8-1,13.3-.7,19.8.8,1.1.8,2,1.3,2.1,3.4Z"/>
    <path fill="#fefefe" d="M17.3,28.4l-.4-2.2c-.2-.8.2-2.5,1.3-2.9,4.2-1.2,8.4-1.5,12.6-1.1l-10.1,2.6c-1.8.5-2.5,2.2-3.4,3.6Z"/>
    <path fill="#de1d37" d="M75.9,18.7c-1.2.2-2.3-.2-3.4-.3.2-1.2.9-1.8,1.4-2.1s1.5,0,2,.6c.4.4.4,1.7-.1,1.9Z"/>
    <path fill="currentColor" d="M57.5,21.8c-4.1,2.1-8.3,2.5-12.6,1.7-2.9-.6-5.7-.7-8.5-1.9,5.9-2.9,11.9-5.9,18-4.9,1.5,1.3,2.3,2.8,3.1,5.1Z"/>
    <path fill="currentColor" d="M38.8,12.3c.6-.3,1.1-.7,1.7-.9,1-.5,2.4-1.6,3.6-1.5,6.2.1,12,1.6,17.6,3.7s.2,1.3,0,1.2h-1c-5.2-1.4-10.2-3-15.7-3.4-5.7,2.5-10.5,6-15.2,9.8-.6.5-1.9.3-2.7,0,3.6-3.3,7.4-6.5,11.7-8.9Z"/>
    <path fill="#fefefe" d="M65.8,18.5c1.1,5.8,3.5,17.8,1.2,15.9-.4-.3-.5-.5-.6-1.3l-1.9-15.4c.9-.2,1.2.3,1.3.8Z"/>
    <path fill="#fefefe" d="M40.5,11.3c-.6.3-1.1.6-1.7.9l-3.5-7.3c-.3-.6.3-1.1.8-.8,1.6,2.4,3,4.8,4.4,7.2Z"/>
  </g>
</svg>