<svg xmlns="http://www.w3.org/2000/svg" viewBox="0 0 431.8 110.3">
<g>
    <polygon fill="#02b8fb" points="431.8 44.3 431.8 92.2 409.5 92.1 409.5 66 383.3 66 383.3 44.1 431.8 44.3"/>
    <path fill="#02b8fb" d="M382.7,22.4c-17.8.2-31.3,13.9-31.5,30.9-.2,17.2,13.5,31.7,31.4,31.8v22.3c-16.6.2-32.6-7.8-42.5-20.4-11-13.9-14.4-31.5-9.5-48.3C337.3,15.7,358.4.3,382.6,0v22.4Z"/>
  </g>
  <g>
    <path fill="currentColor" d="M183.5,74.5c4.8-.1,8.4-2.4,11.7-5.7l7.8,7.6c-8.2,8-20.4,10.6-31.1,6.1-8-3.4-12.1-11-12.5-19.4-.7-14.1,10.1-25.3,24.4-24.8,14.6.6,22.8,13.1,21.6,27.2h-34.3c1.4,5.7,6.4,9.1,12.4,8.9ZM193.7,57.2c-1.1-5.8-5.6-8.7-10.7-8.9-5.7-.3-10.8,3-12.1,9h22.8Z"/>
    <path fill="currentColor" d="M287.6,83.7v-25.2c-.1-5.8-4.4-9.5-10-9.3-5.9.1-10.3,4-10.3,10v24.5s-10.9,0-10.9,0V21.2s10.8-.2,10.8-.2v22.6c4-4,8.8-5.4,14.1-5.3,9.5.1,16.6,7,17.2,16.5v28.8c.1,0-10.8,0-10.8,0Z"/>
    <path fill="currentColor" d="M62.8,61.7c0,13-10.6,23.5-23.6,23.5s-23.6-10.5-23.6-23.5,10.6-23.5,23.6-23.5,23.6,10.5,23.6,23.5ZM52,61.7c0-7.1-5.7-12.8-12.8-12.8s-12.8,5.7-12.8,12.8,5.7,12.8,12.8,12.8,12.8-5.7,12.8-12.8Z"/>
    <path fill="currentColor" d="M235.2,74.2c3.7-.8,6.4-3,8.8-5.4l7.6,7.6c-5.4,6-13,9.3-21,8.6-12.8-1-22.1-11.4-21.6-24.2.5-12.6,10.3-22,22.9-22.3,7.8-.2,14.9,2.6,19.8,8.7l-7.6,7.6c-2.9-3.2-6.5-5.6-10.8-5.7-8.1-.2-13.7,6.1-12.8,13.9.8,7.3,6.9,12.7,14.8,11.1Z"/>
    <path fill="currentColor" d="M152.1,83.7h-10.9s0-34,0-34c-1.8-.5-3.4-.2-5.8-.2v-9.8s5.6,0,5.6,0v-13.5c.1,0,11,0,11,0v13.4c0,0,6.2.1,6.2.1v9.6c0,0-6.2.3-6.2.3v34.1Z"/>
    <rect fill="currentColor" x="0" y="21.3" width="10.9" height="62.7"/>
    <rect fill="currentColor" x="118.9" y="39.7" width="10.9" height="44.3"/>
    <ellipse fill="currentColor" cx="124.9" cy="27.3" rx="7.4" ry="7.3"/>
    <g>
      <path fill="currentColor" d="M94.4,110h-8.6c-.3-.5-.8-.7-1.6-.9-10.3-2.6-17.3-11.8-17.1-22.4h11.1c0,7.4,5.8,12.7,12.8,12.6,6.9,0,12.4-5.3,12.6-12.7h10.9c.1,11.7-8.5,21.2-20.1,23.3Z"/>
      <path fill="currentColor" d="M114.1,48.3l-3.4,1.8c4.7,7.1,4.7,16,.3,23.7-3.7,6.5-11.2,11.1-19.5,11.4-7.2.3-13.9-2.5-18.4-7.4-5.2-5.6-7.1-13-5.7-20.4,2.7-14.6,17.4-21.9,31.4-17.9l15.1.4.2,8.4ZM103.7,61.7c0-7-5.7-12.8-12.8-12.8s-12.8,5.7-12.8,12.8,5.7,12.8,12.8,12.8,12.8-5.7,12.8-12.8Z"/>
    </g>
  </g>
</svg>