<svg xmlns="http://www.w3.org/2000/svg" viewBox="0 0 816 110.2">
  <path fill="currentColor" d="M431.3,76.8l.2,16.4-34-.2c-4.7,0-10.2-1-13.9-4.1s-5.5-6.7-5.8-10c-1.7-15.9-2.1-31.7.6-47.1,1.4-8.2,8.6-12.9,16-13.4l11.7-.8h51.6c0-.1.2,16.8.2,16.8h-53.6c-1.5,0-4,2.1-4.6,3.4v35c.2,2,2.3,3.8,4.4,3.6l27.2.2Z"/>
  <path fill="currentColor" d="M366.2,110.2l-61.1-61.3-9.8-10.2c-2.8-2.9-8.8-6.9-9.3-11.5-.9-8.7-.5-16.6-.3-25.7,2.1.4,2.5,1.9,3.9,3.3l72.9,73.1c2.9,2.9,4.4,5.9,4.3,10l-.5,22.2Z"/>
  <path fill="currentColor" d="M495.1,77.5v15.9c-14.3,1.8-27.5-6-27.5-19.7v-36.6c.1-7.1,5.1-15.1,12-17.1,6.5-1.9,13.4-1.6,20.1-1.9l17-.8v17.2s-21.4,0-21.4,0c-2.7,0-5.3,2.5-5.3,5.4v30.3c0,3.1,1.4,5.8,5.1,7.3Z"/>
  <path fill="currentColor" d="M590.8,94.4v-17.2c0,0,21.7-.2,21.7-.2,1.6,0,4.3-1.9,5-3.2v-34.2c0-2.7-2.5-4.5-5.3-5.5v-15.7c5.1-.2,9.8-.2,14.8,1.4,6.8,2.2,12.4,9.1,12.4,16.7v38.6c0,5.8-3,12.4-8.2,14.9-5.9,2.8-12.6,3.2-19,3.7l-21.4.7Z"/>
  <path fill="currentColor" d="M681.6,93.8v-17.1c.1,0,22.6-.2,22.6-.2,2.3,0,4-3.2,4-5.5v-33.3c-.1,0-5.1-4.4-5.1-4.4v-14.9c6-.3,12-.3,17.2,2.5,6,3.2,10.2,10.2,10.2,17.2l-.2,36.1c0,6.5-3.8,13.5-9.5,16.1-7,3.2-14.7,3.4-22.1,3.4h-17.1Z"/>
  <path fill="currentColor" d="M580.7,74.2l5.3,3.8.2,15.2c-4.6.4-8.7.6-12.8-.5-8.6-2.4-14.5-9.7-14.5-18.7v-37.5c0-10.2,8.5-17.7,18.6-17.9l29.7-.4v16.3s-21,.2-21,.2c-1.8,0-4.6,1.9-5.5,3.3v36.3Z"/>
  <path fill="currentColor" d="M113.4,93.8v-16.7s21,0,21,0c2.3,0,5.6-2.7,5.6-5.3v-32.6c-.8-1.7-3.6-4.3-5.2-5.8v-14.9c5.7-.2,11.5-.4,16.5,2.1s10.4,9,10.5,15.6l.2,35.8c0,10.1-4.6,18.8-15,20.5l-8.5,1.4h-25.1Z"/>
  <path fill="currentColor" d="M671.4,73.3c0,1.7,3.8,4.2,5.2,4.6v14.9c-6.7,2-14.5.4-19.8-4.1s-7.6-11-7.6-18.6v-28.5c0-11.7,5.5-22.8,18.7-23l29.9-.4v16.2s-20.5,0-20.5,0c-1.5,0-4.4,1.4-5.9,2.4v36.3Z"/>
  <path fill="currentColor" d="M102.8,72.5c0,2,4.2,4.9,5.7,6.3l.3,14c-7.1,1.6-15,.2-20.9-4.3-5.5-4.1-6.9-10.9-6.9-17.4,0-12.3-.5-24.1.6-36.2.9-9.5,9.1-16.2,18.4-16.3l29.4-.3v16.2s-21.3,0-21.3,0c-2.8,0-5.4,2.5-5.4,5.3v32.6Z"/>
  <polygon fill="currentColor" points="217.5 80.6 206.1 103.1 162.4 18.4 186.3 18.4 217.5 80.6"/>
  <rect fill="currentColor" x="254" y="18.2" width="21.8" height="75.3"/>
  <path fill="currentColor" d="M76.7,93.8H.2C.2,93.8,0,81.6,0,81.6c0-2.4,1.7-5,4.5-5h66.9c1.7,0,4.1,1.5,5.3,2.5v14.6Z"/>
  <path fill="currentColor" d="M436.3,93.5v-25.9c0,0-9.8,0-9.8,0-3.8,0-7.9-.9-9.7-4.5l-7.9-12.4h49.1c0,0-.1,42.7-.1,42.7h-21.6Z"/>
  <path fill="currentColor" d="M816,80.1v13.7c-.1,0-76.2,0-76.2,0v-17.3s72.1,0,72.1,0c1.6,0,4.2,2,4.1,3.5Z"/>
  <path fill="currentColor" d="M762.2,72.7h-22.5c0,.1,0-49.8,0-49.8-.3-2.7,1.9-5.2,4.7-5.2h17.9c0,0,0,55,0,55Z"/>
  <rect fill="currentColor" x="-16" y="33.7" width="54.7" height="22.6" transform="translate(-33.7 56.4) rotate(-89.9)"/>
  <path fill="currentColor" d="M528.3,93.1l-27.7.2v-16.5s21.6-.1,21.6-.1c1.8,0,4.4-1.7,4.4-3.5v-12.2c.1,0,22.1,0,22.1,0v13.9c.1,6.1-3.5,12.7-9,15.9-2.8,1.7-7.7,2.4-11.4,2.4Z"/>
  <path fill="currentColor" d="M211.6,58c-1.9-3.7-2.6-7.1-.4-10.4l13.5-26.8c.6-.8,2.8-2.5,3.8-2.5h21.4s-29.2,56.7-29.2,56.7l-9-17.1Z"/>
  <path fill="currentColor" d="M307.7,58v35.6c0,0-22.1,0-22.1,0v-56.8c3.1,1.1,3.7,2.4,5.3,4l6.6,6.6,10.2,10.5Z"/>
  <path fill="currentColor" d="M366.2,75.8l-19.3-18.9c-1.5-1.4-2.5-5-2.4-7.1v-31.5c0,0,21.8,0,21.8,0v57.5Z"/>
  <path fill="currentColor" d="M548.8,50.6h-21.6c-2-6.8,3.6-13-6-16.5v-15.5c6.4-.4,12.4-.4,18,2.3,5.2,2.5,9.2,8.8,9.3,14.6l.3,15.1Z"/>
</svg>