<svg xmlns="http://www.w3.org/2000/svg" viewBox="0 0 339.4 110.3">
<g>
    <path fill="#a7a7ab" d="M25.6,97.4l-1.5-1.5-3.4-3.9c-5.2-6.6-9.2-13.9-12.3-21.8C3,56,.7,41,.2,25.8L0,20.6c0-.5,0-1.3.6-1.7,3.2-2.2,6.5-4.1,10-5.9C21.4,7.2,33.7,2.3,45.8,0c5.5,1,10.7,2.5,16,4.4,9.8,3.5,20.5,8.5,29.1,14.4.4.3.7.7.7,1.3,0,18-2.6,36.9-9.7,53.5s-4.7,9.6-7.7,14.1c-6.8,10.3-16.6,18.2-28.3,22.6-7.6-2.9-14.5-7.2-20.3-12.9ZM71.2,87.2c3.5-5.1,6.4-10.3,8.7-16,3.3-8.1,5.5-16.3,6.9-24.9s2-16.3,2.1-24.5,0-1.2-.7-1.5c-9.3-6-20.5-11-31-14.5-3.8-1.2-7.5-2.2-11.4-2.9-3.3.6-6.3,1.4-9.4,2.3-7.9,2.5-15.4,5.5-22.7,9.2-3.8,1.9-7.3,3.9-10.8,6.3,0,17.8,2.6,35.4,9.5,51.8,2.3,5.2,5,10.2,8.3,14.9,6.3,9,15,15.9,25.2,20,10.2-4.1,18.9-11,25.4-20.1Z"/>
    <path fill="#ed1e25" d="M71.2,87.2c-6.4,9.2-15.1,16-25.4,20.1-10.3-4.2-18.9-11.1-25.2-20-3.3-4.7-6-9.6-8.3-14.9C5.4,56,2.8,38.4,2.8,20.6c3.5-2.4,7-4.4,10.8-6.3,7.4-3.7,14.9-6.8,22.7-9.2,3.2-1,6.2-1.7,9.4-2.3,3.9.7,7.6,1.7,11.4,2.9,10.6,3.5,21.7,8.4,31,14.5.6.4.7.8.7,1.5-.1,8.3-.7,16.4-2.1,24.5s-3.6,16.9-6.9,24.9c-2.3,5.7-5.2,10.9-8.7,16ZM44.4,13.6c1.5,3.7,4.4,6.7,7.6,8.9l.3.2h-.3s0,0-.1,0c-3.6-1-6.9-2.7-9.9-4.9,0,0-.1.1-.2.2,1.3,1.7,2.9,3.2,4.7,4.7-1.4.6-2.7.9-4,1.2l-6.4,1.3c1.8.2,3.5.3,5.3.8-6.8.5-13.5,2.2-18.5,6.9,1.2-.1,1.9-.9,3.2-.9-1.3,1.3-2.5,2.4-3.7,3.7s-.9.8-1.4.7c-1.4-.5-1.9-2.6-.9-3.7s1,0,1.2-.4c.8-1.2,0-2.5-1.3-3.3,0-.1,0-.2-.1-.1-.2.1,0,.2,0,.3s0,.1.2.1c.2.6.5,1.1.2,1.4s-.9-.2-1.4-.1-.6,2.2-.7,3.8c-.8-1.2-1.6-3.3-1.3-3.9s.4-.2.7-.3c-.2-1.9-2.1-3.1-3.8-2.7.7.3,1.6.2,1.9.8s-.2.8-.4,1.2c-.5,1.5,0,3,1,4.2s.6,1,.4,1.6c-2.4-.9-2.4-1.4-3-2.7-.7-1.5-2.9-2.1-4.4-1.4.8.2,1.8,0,2.4.7s.7,1.6.7,2.5c.4.3.9.4,1.4.6,1.3,2.5,3.8,2.1,4.7,3.4s-1,4.3-.8,7.1c1.1-.8,1.7-2,3-2.5-1.5,3.6-2.9,7.1-3.4,11s-.2,3.3.7,4.7c.3-.7,0-1.3.7-1.9,1.5,4,3.7,7.4,6.7,10.2h.2c-5.3-7.9-5.4-17-.7-25.2,5.3-9.3,16.1-11.5,26.3-8.8,0-2,1.8-3.5,4-3.2-1.1.5-2,.8-2.5,1.7s-.5,1.9.1,2.8c.9,1.3,2.7,2.1,4.2,1.5s1.8-1,2.7-.5.9,0,1.5,0c1.3-.1,2.7.5,3.6,1.3-.5,1-1.4,1.3-2.2,1.9,1.9-.2,4.4-1.1,4.8,0s0,.8-.1,1.3c1.9-.5,2.6-2.6,2.2-4.5-.2.3-.3.6-.6.6,0-.7,0-1.4-.4-1.9.3.8-.5,2-1.2,2-.9-.9-1.3-2.2-2.3-2.9,0,.3,0,.5-.3.8-.5-.8-1.3-1-2.2-.9s-2-.4-1.9-1.2,1.3-1.1,2-1.2l.6,1.4c1.5-1.3,4-1.9,4.3-.9s-.5,1.1-.9,1.6c.6,0,1.2-.4,1.7-.8l1.1-.9c.5.8.5,1.7.6,2.7,1.1-1.1,1-2.6,1-4.2.4,0,.9.2,1.1.4l.9.8h0c-.2-.6-.6-.9-.9-1.2s-.7-.8-1.3-1c-1-.4-1-1.2-1.5-1.4s-1.2.7-2,.2-.5-.5-.6-1.1c-1.2.3-2.1,0-2.7-1s-.4-1.4-.6-1.9c-1.1-1.3-2.8-1.3-4.3-.8s-2.4,0-3.5-.5c-4.3-1.7-7.7-4.7-10.7-8.1s-.1-.5-.6-.6c0,.3.2.4.3.6ZM41.5,17.3c0,0-.3,0,0,.2v-.2ZM41.6,17.4h-.2c0,.1.1.3.1.3v-.2c.1,0,0,0,0,0ZM41.8,17.6l-.2.2h.1c0,.1.2,0,.2,0h-.1ZM19.3,28.5c.1.1.2,0,0,0h0ZM19.6,28.7h0c-.1-.2-.2-.1,0,0ZM72.9,30.4h-.1c.1.3.3.1.1,0ZM35.1,34.4c-2.9,1.4-5.4,3.3-7.4,5.9-6.4,8.3-5.3,18.8-.3,27.7,1.5-2.5,1.1-5.8,3.4-6.3l3-.7c.4-.1.9-.2,1.2-.6-3.1-2.5-6.4-6.9-6.4-11,1.6,3.8,4.2,6.8,8.1,8.3l3.6,1c.5.2,1.1.3,1.6.1l-1.5-.5c-3.7-1.1-7.6-3.9-9.2-7.6-.1-.2,0-.5,0-.6s.5,0,.6,0c4.1,4.6,10.1,5.8,16,4.5-2.4,0-4.6.1-6.8-.5-2.3-.6-4.5-1.8-6.3-3.3-.6-.5-1.1-1.2-1.2-2,.6,0,.9.2,1.3.4,3.9,2.1,8.4,2.7,12.7,1.3s5.6-2.2,7.8-4.3c-2.5,1-4.4,2.2-6.8,2.9-3.9,1.1-8,1.1-11.7-.7s-1.5-.5-1.6-1.4c7.6,2.4,15.9.5,21.9-4.3s1.5-1.1,1.9-2.1c-6.1,4.8-13.1,7-20.8,5.6s-1.4-.1-1.9-.8c6-.3,13.3-1.2,18.1-4.8,1.3-1,2.7-2.1,3.2-3.8-1.8,2-3.7,3.3-6.1,4.3-3.9,1.6-8,2.4-12.2,2.4s-5.3-.8-6.2-3.1c-.8,1.1-1.7,2.2-2.4,1.7s-.3-.7-.2-1.1c.9-2.4,2.6-4.4,4.5-6.2s.6-.2.7-.7c-.3,0-.5.2-.7.3ZM55.5,46.1h0c0,0,0,.2,0,.2h0c0,0,0-.2,0-.2ZM51.4,56.2l-.6-.9h-.1c0,.4.3.7.5,1,2.6,4.5,7.6,5.5,12.4,3.6-1.5-.2-2.8,0-4.1-.7s-.9-2-.2-2.5c3.1,0,4.8-.9,8,.3,5.8,2.2-.2,14.3-3.2,18.8-2.3,3.4-6.4,5-10.3,6s-6.2,1-9.3.3c-3.9-.9-6.1-4.8-4.9-6.8s2.5-.8,4.1-.3,2.6-1,4-.5,1-1.2,2.4-1.8,1.4,0,2.1.3.3.4.6.3c0-.2-.3-.4-.4-.5-1.2-1-3.2-1.5-4.5-.4s-1.8,1.1-4.1.7c.3-.9,1.1-1.1,1.7-1.4,1.8-.8,2.9-2.4,2.8-4.4.8-.4,1.5,0,2.3.1-1.3-1.3-3.9-.9-4.9.6l.5.6c.4.4-1.9,2.2-3.3,3,.3-1.3,1.7-2.3,1.5-4l-1.5-.5c.2-1.2,1.4-1.3,2.5-1.7-1.2,0-2.4.3-3.4.8s-.8.8-.8,1.4c-.1.7.5.8.9,1.3s-.1,1.9-.7,2.4c-1,.8-2.6.5-3.1-.6s-.2-1.9-.1-3.1c-1.5,1.4-3.2,2.5-5.1,2.5s-2.3-.7-2.6-1.8.3-2.3,1.4-2.8,1.9-.6,2.8,0,.5.7.5,1-.3.8-.8,1c-.8.3-1.5,0-2-.9-.2.4-.1.9,0,1.4.6,1.2,3.3,1.1,4.6-.3s1.3-2.3.9-3.6c-.8-2.7-4.5-2.5-6.7-1.3-2,1.1-1.2,4.9-3.4,7.3.8,0,1.5.2,2,1-3.3,0-5,3.2-5.2,6.2l.7-.8c1.1-.9,2.4-1.4,3.8-1.8s1.3-1.6,1.8-1.9.4,0,.4.1c.2.9-.9,2.3-.2,3.6s3,2.1,3.1,2.7-1.8.6-3.1,2.4-1.1,2.3-1.3,3.5c1-1.2,2.3-1.7,3.6-2.1s1.3-2,2-1.9,0,2.3,2.4,2.6,1.6,0,2.3.6c-2.3,1.3-2.9,3.5-2.6,6,.7-1.3,1.7-2.1,2.9-2.7s.7-2.4,1.5-2.4,1,2.6,3.3,1.8c.8-.3,1.8-.6,2.7-.5.1.6-.3.9-.5,1.3-.8,1.5-.5,3.2.3,4.7.2-1.2.7-2.1,1.4-2.9s0-2,.4-2.6,2.2,1.4,5.5-1.3l2.2-1.7c.2-.1.5,0,.6,0,.4.2-.2,1.4.8,2.5s1.7,1.4,2.8,1.6c-1.4-1.4-.8-3.4-2-3.9s-.5-.3-.5-.6c0-.9,2.5-.8,4.6-1.8s1.7-1.6,2.1-2.8l1-3.6c0-.2.2-.4.4-.5.6-.3,1.2.7,1.8.8,1.5.3,3-.4,4-1.5-1.1.3-2.1-.1-3.2-.5l-2-.2c.2-.7.6-1.2,1-1.6,2.5-2.3,1.9-5,2.5-5.5s2.8,1.3,4.6-2c-.8.3-1.5.4-2.3.3-1.1-.2-1.7.9-2.1.5s.1-1.7.7-2.7c1.1-1.8-.6-3,0-3.8s2.7,0,2.7-3.4c-.6.6-1.2,1-1.9,1.3s-.9,1.2-1.3,1.3-.4,0-.5-.3c-1-1.7-3.9-2.4-5.9-2.2l-3.9.4c-.3,0-.6,0-.8-.2s-.1-.6.1-.9c1-1.4,2.7-1.3,4.2-.4-1.8-4.3-6.2-5.5-10.5-5,2.1.6,5.5,1.3,5.8,2.8s-1.3,2.7-2.2,2.9c-1.9.5-4.1-1.8-4.4-4.2-.6,2.8,1.2,5.3,4,5.7.5.5.6,2,0,2.4-1.6,1.1-4.5-.5-5.8-2.5ZM50.6,55.1c0-.1-.2,0-.2,0h.2ZM25.5,66.6v.2c-.1,0,0,.1,0,.1h.2c0-.1-.1-.3-.1-.3ZM25.7,66.8v.2c-.1,0,.2,0,0-.2Z"/>
    <path fill="#fef9f9" d="M71.8,29.6v-.4c.4.3.8.6,1,1.1s0,0,.1,0c.2.1,0,.3-.1.1,0,0,0,0,0-.1l-.9-.8Z"/>
    <path fill="#a7a7ab" d="M44.7,13.5h-.3c0-.1-.3-.3-.3-.6.4,0,.4.4.6.6Z"/>
    <g>
      <path fill="#fffbfb" d="M71.9,29.2v.4c-.3-.2-.8-.4-1.2-.4,0,1.6.1,3.1-1,4.2,0-1,0-1.9-.6-2.7l-1.1.9c-.5.4-1.1.8-1.7.8.4-.4,1.2-1,.9-1.6-.4-.9-2.8-.4-4.3.9l-.6-1.4c-.7,0-1.9.4-2,1.2s1.2,1.3,1.9,1.2c1-.1,1.7,0,2.2.9.2-.3.2-.5.3-.8,1,.8,1.4,2,2.3,2.9.8,0,1.5-1.1,1.2-2,.4.5.5,1.1.4,1.9.3,0,.4-.2.6-.6.4,1.9-.2,4-2.2,4.5.1-.6.3-1,.1-1.3-.4-1.1-2.9-.3-4.8,0,.8-.6,1.7-.8,2.2-1.9-.9-.8-2.3-1.4-3.6-1.3s-.9.3-1.5,0c-.9-.5-1.9.2-2.7.5-1.5.6-3.3-.2-4.2-1.5-.6-.9-.6-1.9-.1-2.8s1.5-1.2,2.5-1.7c-2.1-.3-3.9,1.2-4,3.2-10.2-2.7-21-.5-26.3,8.8-4.7,8.2-4.6,17.3.7,25.1,0,0,0,0,0,0h.1c0,.2,0,.2,0,.2.2.2-.1.2,0,.2h-.2c0-.1-.1-.2-.1-.2h0c-3-2.8-5.2-6.3-6.7-10.3-.6.6-.4,1.2-.7,1.9-.9-1.4-.9-3.1-.7-4.7.5-3.8,1.9-7.3,3.4-11-1.3.6-1.9,1.7-3,2.5-.2-2.8,2-5.3.8-7.1s-3.5-.9-4.7-3.4c-.5-.2-1-.2-1.4-.6,0-.9,0-1.9-.7-2.5s-1.6-.4-2.4-.7c1.5-.7,3.7-.1,4.4,1.4.7,1.3.7,1.8,3,2.7.2-.6,0-1.1-.4-1.6-.9-1.2-1.4-2.7-1-4.2s.6-.8.4-1.2c-.4-.6-1.2-.5-1.9-.8,1.8-.4,3.7.9,3.8,2.7-.3,0-.6.1-.7.3-.4.6.4,2.7,1.3,3.9,0-1.6,0-3.7.7-3.8s1,.5,1.4.1,0-.9-.2-1.4,0-.2,0-.2c1.3.7,2.1,2,1.3,3.3s-1,.1-1.2.4c-1,1-.6,3.2.9,3.7s1.2-.3,1.4-.7c1.2-1.3,2.3-2.4,3.7-3.7-1.2,0-2,.8-3.2.9,5-4.7,11.7-6.4,18.5-6.9-1.7-.5-3.4-.6-5.3-.8l6.4-1.3c1.4-.3,2.7-.6,4-1.2-1.8-1.5-3.4-3-4.7-4.7,0,0,0,0,0,0h-.1c0-.1,0-.2,0-.2h-.1c0-.2,0-.2,0-.2-.2-.2,0-.3,0-.2h.1c0,.1.1.2.1.2h0c0,0,.1.2.1.2,0,0,0,0,.1,0,3,2.2,6.3,3.9,9.9,4.9v-.2c-3.1-2.2-6.1-5.1-7.5-8.9h.3c3,3.3,6.5,6.3,10.7,8.1,1.1.4,2.3.9,3.5.5s3.2-.5,4.3.8c.2.6.3,1.4.6,1.9.6,1,1.5,1.3,2.7,1,0,.6.4.9.6,1.1.8.5,1.6-.4,2-.2s.5,1,1.5,1.4.9.6,1.3,1ZM52.1,22.7h.3c0,0-.3,0-.3,0ZM62.9,26c-.2-.8-.3-1.1-.7-1.5l-2.3-.4c.3.4.5.8.9,1.1.6.6,1.4.9,2.1.7Z"/>
      <path fill="#fef9f9" d="M35.1,34.4v.4c-1.8,1.8-3.5,3.8-4.4,6.2s0,.9.2,1.1c.7.6,1.6-.5,2.4-1.7.9,2.3,3.9,3.1,6.2,3.1,4.2,0,8.3-.9,12.2-2.4s4.3-2.3,6.1-4.3c-.4,1.7-1.9,2.8-3.2,3.8-4.8,3.6-12.1,4.5-18.1,4.8.5.7,1.2.7,1.9.8,7.7,1.4,14.7-.8,20.8-5.6-.4.9-1.1,1.5-1.9,2.1-6,4.8-14.3,6.7-21.9,4.3.2.9,1,1.1,1.6,1.4,3.7,1.7,7.7,1.7,11.7.7s4.3-1.9,6.8-2.9c-2.2,2.1-5,3.4-7.8,4.3-4.3,1.4-8.8.8-12.7-1.3-.4-.2-.8-.4-1.3-.4.1.8.6,1.5,1.2,2,1.8,1.5,4,2.7,6.3,3.3,2.3.6,4.5.5,6.8.5-5.8,1.3-11.9.1-16-4.5-.2-.2-.5-.2-.6,0s-.2.3,0,.6c1.6,3.7,5.5,6.5,9.2,7.6v.3c0,0-3.7-1-3.7-1-3.9-1.5-6.5-4.5-8.1-8.3,0,4.1,3.3,8.5,6.4,11-.3.5-.7.5-1.2.6l-3,.7c-2.3.5-1.9,3.8-3.4,6.3-5-8.9-6-19.4.3-27.7,2-2.6,4.5-4.5,7.4-5.9Z"/>
      <path fill="#a7a7ab" d="M40.3,58.7v-.3c0,0,1.6.5,1.6.5-.5.1-1.1,0-1.6-.1Z"/>
      <path fill="#a7a7ab" d="M51.4,56.2c-.1,0-.2,0-.3.1-.2-.3-.4-.6-.5-1l-.2-.2c0-.1.1-.2.2,0v.2c.1,0,.7.9.7.9Z"/>
      <path fill="#a7a7ab" d="M35.1,34.8v-.4c.2-.1.3-.3.7-.3,0,.4-.5.5-.7.7Z"/>
      <path fill="#a7a7ab" d="M51.8,73c.1,0,.2-.1.2-.2.1.1.5.3.4.5-.3.1-.5-.2-.6-.3Z"/>
      <path fill="#a7a7ab" d="M20.1,28.9c0,0,0,.2,0,.2,0,0-.2,0-.2-.1s0-.1,0-.3.2,0,.1.1Z"/>
      <path fill="#a7a7ab" d="M19.3,28.5c.1.1.2,0,0,0l.2.2c-.1-.1-.2,0,0,0l-.2-.2Z"/>
      <rect fill="#fef9f9" x="55.4" y="46.2" width=".1" height=".1" transform="translate(-16.4 52.8) rotate(-45)"/>
      <path fill="#fef9f9" d="M52.1,72.8c0,.1,0,.2-.2.2-.7-.3-1.4-.6-2.1-.3-1.4.6-1.3,2.3-2.4,1.8s-2,1.1-4,.5-3.5-.7-4.1.3c-1.2,2,1.1,5.9,4.9,6.8,3.1.7,6.2.5,9.3-.3s8.1-2.6,10.3-6c3-4.5,9-16.6,3.2-18.8-3.2-1.2-4.8-.4-8-.3-.6.5-.5,2.1.2,2.5,1.3.7,2.6.5,4.1.7-4.8,1.9-9.8.8-12.4-3.6.1,0,.2,0,.3-.1,1.3,1.9,4.3,3.6,5.8,2.5s.5-1.9,0-2.4c-2.8-.5-4.7-2.9-4-5.7.3,2.4,2.5,4.7,4.4,4.2s2.3-1.9,2.2-2.9c-.3-1.6-3.7-2.3-5.8-2.8,4.2-.5,8.7.7,10.5,5-1.5-1-3.2-1-4.2.4s-.3.7-.1.9.5.2.8.2l3.9-.4c2-.2,4.9.5,5.9,2.2s.3.3.5.3c.5,0,.4-1,1.3-1.3s1.3-.7,1.9-1.3c0,3.4-2.5,3.1-2.7,3.4-.6.8,1.1,2,0,3.8s-1.2,2.3-.7,2.7,1-.7,2.1-.5,1.5,0,2.3-.3c-1.8,3.3-3.8,1.4-4.6,2s0,3.2-2.5,5.5-.8.9-1,1.6l2,.2c1.1.4,2.1.8,3.2.5-1,1.1-2.5,1.8-4,1.5s-1.1-1-1.8-.8-.3.2-.4.5l-1,3.6c-.3,1.2-.9,2.2-2.1,2.8-2.1,1-4.6.9-4.6,1.8s.2.5.5.6c1.1.5.5,2.5,2,3.9-1.1-.1-2.1-.7-2.8-1.6s-.4-2.3-.8-2.5-.4-.1-.6,0l-2.2,1.7c-3.3,2.7-4.9.5-5.5,1.3s.6,1.4-.4,2.6-1.2,1.7-1.4,2.9c-.8-1.4-1.1-3.2-.3-4.7.2-.4.6-.7.5-1.3-.9-.1-1.8.2-2.7.5-2.3.8-2.7-1.8-3.3-1.8s.2,1.5-1.5,2.4-2.2,1.4-2.9,2.7c-.3-2.5.3-4.7,2.6-6-.7-.7-1.5-.6-2.3-.6-2.4-.3-1.8-2.5-2.4-2.6s-.2,1.4-2,1.9-2.6.9-3.6,2.1c.1-1.2.5-2.4,1.3-3.5,1.2-1.8,3.1-1.7,3.1-2.4s-2.2-1.1-3.1-2.7.4-2.7.2-3.6-.3-.2-.4-.1c-.5.3-.2,1.4-1.8,1.9s-2.6.9-3.8,1.8l-.7.8c.3-3,2-6.3,5.2-6.2-.5-.8-1.1-1-2-1,2.2-2.4,1.4-6.1,3.4-7.3,2.2-1.2,5.9-1.5,6.7,1.3s0,2.6-.9,3.6c-1.3,1.4-4,1.5-4.6.3s-.3-.9,0-1.4c.5.8,1.2,1.1,2,.9s.8-.6.8-1-.2-.8-.5-1c-.9-.6-1.9-.5-2.8,0s-1.7,1.7-1.4,2.8,1.3,1.8,2.6,1.8c2,0,3.6-1.1,5.1-2.5-.1,1.1-.3,2.1.1,3.1s2.1,1.5,3.1.6,1.1-1.7.7-2.4-1-.6-.9-1.3.2-1.1.8-1.4c1-.5,2.2-.9,3.4-.8-1.1.4-2.3.5-2.5,1.7l1.5.5c.2,1.7-1.2,2.7-1.5,4,1.4-.8,3.7-2.7,3.3-3l-.5-.6c1-1.4,3.6-1.9,4.9-.6-.8,0-1.5-.5-2.3-.1.1,2-1,3.6-2.8,4.4s-1.4.5-1.7,1.4c2.3.4,2.7.3,4.1-.7s3.3-.6,4.5.4Z"/>
      <path fill="#ed1e25" d="M62.9,26c-.8.2-1.6-.1-2.1-.7-.4-.4-.6-.7-.9-1.1l2.3.4c.3.4.5.6.7,1.5Z"/>
    </g>
  </g>
  <g>
    <path fill="currentColor" d="M210.3,47.1c1.3-3.2,1.7-6.9-1.3-8.2-3.6-1.5-10,.1-13.5,2.3s-3.6,3.1-5.2,4.7c-1.9,2.2-3.6,4.4-4.8,7.1l-10.9,30.2h-23.1s13-35.9,13-35.9c.5-1.3.8-2.3,1.1-3.6.2-1.4,0-3-1.1-4.1-2.9-2.7-10.4-.9-14.3,1.3s-2.9,2.3-4.2,3.6c-2.5,2.5-4.6,5.1-6.2,8.3l-11,30.4h-23.1s21.2-58.5,21.2-58.5c2.6,0,5.1.2,7.6.9,2.4.6,4.4,1.8,6.3,3.4,1.6,1.3,2.6,3,3.2,5.1l8.7-4.7c8-3.6,17.2-5.7,25.9-4.2s7.3,2.5,9.8,5.6,1,2.1,1.5,3.2l9.1-4.8c7.9-3.4,16.6-5.4,25.1-4.1,3,.5,5.7,1.6,8,3.5,1.5,1.3,2.7,2.7,3.4,4.6,1,3.1.9,6.4-.3,9.6l-14.7,40.5h-23.1s13.1-36.2,13.1-36.2Z"/>
    <g>
      <path fill="currentColor" d="M258.3,83.2c-9.9.3-19.5-.5-29.3-2.4l2.9-8.2c8.3,1.5,16.6,2.2,25,1.9,2.5-.2,4.9-.5,7.2-1.6,2.4-1.1,4.1-3.2,4-5.9s-3.2-4.4-5.3-5.4l-7.5-3.8c-2.8-1.4-5.5-2.6-7.9-4.4s-5.1-6.5-4.2-10.6c.9-4.1,3.2-7.5,6.6-9.9,4.1-2.9,8.5-5.1,13.3-6.4s6.4-1.3,9.8-1.6c11.3-.7,22.4,0,33.7,2.2l-2.9,8.2c-7.7-1.4-15.4-2.1-23.3-2-3.1.1-6,.4-8.7,1.6s-4.4,3.4-4.2,6.3,6.1,5.7,9.2,7.2l8.7,4.3c1.4.7,2.6,1.6,3.7,2.6,3.4,3.1,4.5,7.6,2.8,11.8-1.2,3.1-3,5.7-5.7,7.6-4.3,3.2-9.2,5.6-14.5,6.9-4.4,1.1-8.7,1.4-13.4,1.5Z"/>
      <path fill="currentColor" d="M318.2,83.2h-23.1s15.2-41.8,15.2-41.8c7.9-1.5,15.9-2.3,24-2.4l-16,44.2Z"/>
      <path fill="currentColor" d="M336.3,33.2c-8.1.2-16,.9-24,2.4l3.1-8.6c7.9-1.5,15.9-2.2,24-2.4l-3.1,8.6Z"/>
    </g>
  </g>
</svg>