<svg xmlns="http://www.w3.org/2000/svg" viewBox="0 0 581.8 110.3">
<g>
    <path fill="currentColor" d="M555.5,80.3h-33.8s-4.7,12.8-4.7,12.8h-20.1c0,0,28.5-72.1,28.5-72.1h27.4s28.8,72,28.8,72h-21.9c0,0-4.3-12.7-4.3-12.7ZM551.1,67.7l-12.3-33.5-12.7,33.7,25-.2Z"/>
    <g>
      <path fill="currentColor" d="M456.5,73.7c-2.5,9.6-10.2,16.5-20,18.3l-12.6,1.1h-35.4c0,0,0-72.1,0-72.1h34.2c5.5.2,10.6.8,15.8,2.4,20.3,6.4,23.1,31.4,18.1,50.4ZM437.7,49.7c-1.7-7-7.2-11.7-14.4-12.7l-14.5-.4v40.9s14.6-.4,14.6-.4c13.5-2,17.3-15,14.3-27.4Z"/>
      <path fill="currentColor" d="M247.3,93.1v-35.4c-.1-3.9-.5-7.6-1.6-11.2-1.5-5.3-5.9-9.1-11.5-9.2l-19.1-.2v56.1s-20.7,0-20.7,0V20.8s39.4,0,39.4,0c5.3,0,10.3.6,15.2,2.2,13.4,4.2,18,15.3,18.3,29v41s-20,0-20,0Z"/>
      <polygon fill="currentColor" points="326 20.9 346.9 20.9 323.3 93.1 293.8 93.1 270.4 21 292.5 20.9 308.9 77.6 326 20.9"/>
      <rect fill="currentColor" x="355.5" y="20.9" width="20.5" height="72.2"/>
    </g>
    <rect fill="currentColor" x="468.2" y="20.9" width="20.5" height="72.2"/>
  </g>
  <g>
    <path fill="#76b902" d="M167.1,110.3H62.5v-13.1c22.5,1.6,50.7-6.1,71.1-15.1,7.6-3.3,14.6-7.1,20.9-12.3l-19.3-11.2c-9.5,8.4-18.8,15.5-29.7,21.2-13.4,7-27.9,10.3-43.1,8.9v8.5C32.5,94.3,11.2,72.8,0,45.8c17.4-15.7,39.4-28.7,62.1-30.8l.3-.3V0S167.1,0,167.1,0v110.3ZM62.4,23.1c-17.7,1.2-34.3,10.1-45.3,24.3,7.7,20.8,22.9,38.2,45.2,41.2v-9.1c9.1,1.5,18.1,0,26.7-3.7,15.2-6.7,27.9-17.8,39-30.1C111.3,26.3,88.4,13.2,62.9,14.9l-.4.4v7.8Z"/>
    <path fill="#76b902" d="M62.5,71.5v-30c5.9.6,11.2,3.5,14.2,8.9l4.9,7.6,14.1-11.8c-8.2-9.8-20.4-15-33.3-13.2v-9.9c19.2-1.5,35.9,8.3,48,23.1-8.6,10.9-20,22-33,25.7-5.2,1.5-10.2,1.1-15.1-.4Z"/>
    <path fill="#76b902" d="M62.4,41.5c-7.2-.7-13.9,3.1-19,8.7,3.3,9.7,9.6,18.5,19.1,21.4v8c-16-2.9-27.2-15-32.6-30.9,8.7-8.6,19.7-14.1,32.3-15.7l.2,8.5Z"/>
  </g>
</svg>