<svg xmlns="http://www.w3.org/2000/svg" viewBox="0 0 1520.5 107.2">
<polygon fill="#ee7901" points="1119.1 0 1058.6 0 1058.6 -.2 998.2 -.2 998.2 0 937.7 0 937.7 25.8 998.2 25.8 998.2 105.1 1058.6 105.1 1058.6 25.8 1119.1 25.8 1119.1 0"/>
  <polygon fill="currentColor" points="679.5 106.4 678.3 30.4 641.8 105.8 597.1 106.5 560.5 30.6 559.5 105.9 510.5 107 510.4 .4 589 0 619.5 64.3 649.2 .2 728.1 .3 728.1 106.2 679.5 106.4"/>
  <polygon fill="#ee7901" points="1520.5 103.8 1448.7 105.1 1408.1 60.2 1377.5 81.1 1377.1 105.1 1317.3 105.2 1317.3 -.4 1376.7 -.4 1377.7 38.5 1438.6 .5 1514.9 1.1 1449.1 38.4 1520.5 103.8"/>
  <path fill="currentColor" d="M436.5,68.4l-38.1-.5v-21.3c0,0,92.3-.4,92.3-.4l.2,43.2c-53.6,25.4-186.4,27.7-196.6-26.7C282.5-.4,385-5,447,3.6c17.3,2.4,31.5,11,41.1,26.2l-54.5,5.8c-16.6-12.4-36.4-15.2-56.9-10-13.7,3.5-23.4,14.5-23.2,28.1.4,33.1,48,35.9,82,24.5,2.3-.8,2.9-9.7,1.1-9.7Z"/>
  <polygon fill="currentColor" points="209.5 106.4 142.8 107.1 104.9 73.4 66.6 107.6 0 106.9 66.1 51.6 6.3 1.6 71.8 .6 104.6 33 137.3 .8 203.5 1.2 145.3 52 209.5 106.4"/>
  <path fill="currentColor" d="M878.3-.2l-67.5.2-71.3,106.2h62.1l8.9-17.3h67.6c0,0,9.1,17.3,9.1,17.3h62.1L878.3-.2ZM822.8,65.2l21.5-37.3,21.6,37.3h-43.1Z"/>
  <rect fill="currentColor" x="221.4" y=".5" width="60.5" height="106.5"/>
  <polygon fill="#ee7901" points="1298 22.2 1298 22.2 1298 -.5 1298 -.5 1298 -.5 1134.8 -.5 1134.8 -.5 1134.8 -.5 1134.8 22.2 1134.8 38 1134.8 60.6 1134.8 82.6 1134.8 105.2 1134.8 105.8 1194 105.8 1194 105.2 1298 105.2 1298 82.6 1194 82.6 1194 60.6 1287.8 60.6 1287.8 38 1194 38 1194 22.2 1298 22.2"/>
</svg>